<svg class="svg-icon logo-inline" height="120" viewBox="0 0 1365 120" width="1365" xmlns="http://www.w3.org/2000/svg">
<title>Business Insider</title>
<g class="logo-inline-path" fill="#0a0a0a" fill-rule="evenodd">
<path d="M0 2.46h49.1c27.31 0 41.59 14.12 41.59 31.46 0 11.97-6.75 20.1-16.11 24.4v.31c11.97 4.3 18.72 13.81 18.72 25.93 0 17.34-13.35 32.53-42.2 32.53H0V2.46Zm47.57 45.42c8.13 0 11.82-4.14 11.82-8.75s-3.68-8.9-11.82-8.9H33.15v17.65h14.42Zm.46 41.43c8.59 0 12.74-4.14 12.74-9.51s-4.3-9.51-12.58-9.51H33.15v19.03h14.88Zm52.32-18.87V2.46h33.45v67.67c0 12.74 6.29 19.49 17.03 19.49s17.49-6.75 17.49-19.64V2.46h33.61v67.98c0 28.85-19.33 49.57-51.1 49.57s-50.49-20.72-50.49-49.57ZM287.1 7.98v29.46c-7.21-5.06-19.49-8.59-29.46-8.59-9.05 0-13.66 2.92-13.66 6.75s5.06 5.83 14.12 9.05c15.35 5.37 36.21 12.58 36.21 36.98 0 21.79-16.42 37.9-45.27 37.9-14.88 0-28.54-4.3-36.98-9.97v-31c8.29 6.75 20.87 12.12 32.99 12.12 10.28 0 15.04-3.84 15.04-8.13 0-5.52-7.83-7.98-17.19-11.36-12.28-4.45-31.76-12.43-31.76-34.68 0-20.1 15.81-36.52 44.04-36.52 12.43 0 23.63 3.22 31.92 7.98Zm15.8-5.52h33.45v114.63H302.9V2.46Zm152.38 114.63h-31.92l-41.28-61.53h-.15v61.53h-31.76V2.46h31.92l41.28 60.46h.15V2.46h31.76v114.63ZM469.09 2.46h79.18v29.77h-45.73v13.81h41.12v27.01h-41.12v14.27h45.73v29.77h-79.18V2.46Zm163.12 5.52v29.46c-7.21-5.06-19.49-8.59-29.46-8.59-9.05 0-13.66 2.92-13.66 6.75s5.06 5.83 14.12 9.05c15.35 5.37 36.21 12.58 36.21 36.98 0 21.79-16.42 37.9-45.27 37.9-14.88 0-28.54-4.3-36.98-9.97v-31c8.29 6.75 20.87 12.12 32.99 12.12 10.28 0 15.04-3.84 15.04-8.13 0-5.52-7.83-7.98-17.19-11.36-12.28-4.45-31.76-12.43-31.76-34.68 0-20.1 15.81-36.52 44.04-36.52 12.43 0 23.63 3.22 31.92 7.98Zm88.54 0v29.46c-7.21-5.06-19.49-8.59-29.46-8.59-9.05 0-13.66 2.92-13.66 6.75s5.06 5.83 14.12 9.05c15.35 5.37 36.21 12.58 36.21 36.98 0 21.79-16.42 37.9-45.27 37.9-14.88 0-28.54-4.3-36.98-9.97v-31c8.29 6.75 20.87 12.12 32.99 12.12 10.28 0 15.04-3.84 15.04-8.13 0-5.52-7.83-7.98-17.19-11.36-12.28-4.45-31.76-12.43-31.76-34.68 0-20.1 15.81-36.52 44.04-36.52 12.43 0 23.63 3.22 31.92 7.98Zm45.97 109.33h33.45V2.69h-33.45v114.63ZM919.08 2.69h-31.76v60.46h-.15L845.89 2.69h-31.92v114.63h31.76V55.79h.15l41.28 61.53h31.92V2.69ZM972.92.23c-28.24 0-44.04 16.42-44.04 36.52 0 22.25 19.49 30.23 31.76 34.68 9.36 3.38 17.19 5.83 17.19 11.36 0 4.3-4.76 8.13-15.04 8.13-12.12 0-24.71-5.37-32.99-12.12v31c8.44 5.68 22.1 9.97 36.98 9.97 28.85 0 45.27-16.11 45.27-37.9 0-24.4-20.87-31.61-36.21-36.98-9.05-3.22-14.12-5.06-14.12-9.05s4.6-6.75 13.66-6.75c9.97 0 22.25 3.53 29.46 8.59V8.21C996.55 3.45 985.35.23 972.92.23Zm46.94 117.08h33.45V2.69h-33.45v114.63Zm80.71-30.23h6.45c17.34 0 28.54-9.82 28.54-27.01s-11.2-27.16-28.54-27.16h-6.45v54.17Zm68.75-27.01c0 34.53-26.09 57.24-63.53 57.24h-38.67V2.69h38.67c37.44 0 63.53 22.86 63.53 57.39Zm9.07 57.24h79.18V87.54h-45.73V73.27h41.12V46.26h-41.12V32.45h45.73V2.69h-79.18v114.63Zm131.83-60.46c8.44 0 15.04-3.99 15.04-11.97s-6.6-11.97-15.19-11.97h-7.06v23.94h7.21Zm54.78 60.46h-39.44l-21.79-35.45h-.77v35.45h-33.45V2.69h40.82c28.7 0 48.64 12.74 48.64 39.9 0 10.74-4.76 26.39-23.79 34.37l29.77 40.36Z"></path>
</g>
</svg>