<?xml version="1.0" encoding="UTF-8"?> <svg xmlns="http://www.w3.org/2000/svg" width="144" height="34" viewBox="0 0 144 34" fill="none"><path d="M47.6902 25.1591C46.1935 25.1591 44.9185 24.8542 43.8652 24.2444C42.812 23.6346 42.0012 22.7685 41.433 21.6459C40.8787 20.5095 40.6015 19.1721 40.6015 17.6338C40.6015 16.0955 40.8787 14.7651 41.433 13.6425C42.0012 12.52 42.812 11.6538 43.8652 11.044C44.9185 10.4342 46.1935 10.1293 47.6902 10.1293C48.7296 10.1293 49.6581 10.2818 50.4758 10.5867C51.2935 10.8916 52.0072 11.335 52.617 11.9171L51.8686 13.6425C51.2034 13.0743 50.552 12.6655 49.9145 12.416C49.2909 12.1666 48.5633 12.0418 47.7318 12.0418C46.1519 12.0418 44.9462 12.5269 44.1147 13.497C43.2831 14.4671 42.8674 15.846 42.8674 17.6338C42.8674 19.4216 43.2831 20.8075 44.1147 21.7914C44.9462 22.7615 46.1519 23.2466 47.7318 23.2466C48.5633 23.2466 49.2909 23.1219 49.9145 22.8724C50.552 22.6229 51.2034 22.2072 51.8686 21.6251L52.617 23.3505C52.0072 23.9326 51.2935 24.383 50.4758 24.7017C49.6581 25.0066 48.7296 25.1591 47.6902 25.1591ZM54.3857 17.6338C54.3857 16.0955 54.656 14.7651 55.1965 13.6425C55.737 12.52 56.52 11.6538 57.5455 11.044C58.5849 10.4342 59.8183 10.1293 61.2458 10.1293C62.6594 10.1293 63.8789 10.4342 64.9045 11.044C65.93 11.6538 66.72 12.52 67.2743 13.6425C67.8425 14.7651 68.1266 16.0886 68.1266 17.613C68.1266 19.1513 67.8425 20.4887 67.2743 21.6251C66.72 22.7477 65.9231 23.6208 64.8837 24.2444C63.8581 24.8542 62.6455 25.1591 61.2458 25.1591C59.8183 25.1591 58.5918 24.8542 57.5663 24.2444C56.5408 23.6208 55.7508 22.7477 55.1965 21.6251C54.656 20.4887 54.3857 19.1583 54.3857 17.6338ZM56.6516 17.6338C56.6516 19.4077 57.0397 20.7936 57.8158 21.7914C58.5918 22.7892 59.7352 23.2882 61.2458 23.2882C62.7148 23.2882 63.8512 22.7962 64.655 21.8122C65.4588 20.8144 65.8607 19.4216 65.8607 17.6338C65.8607 15.846 65.4588 14.4602 64.655 13.4762C63.8651 12.4922 62.7287 12.0003 61.2458 12.0003C59.7352 12.0003 58.5918 12.4922 57.8158 13.4762C57.0397 14.4602 56.6516 15.846 56.6516 17.6338ZM71.0847 24.972V10.3164H72.7477L81.7489 22.124H81.2292V10.3164H83.2457V24.972H81.6034L72.623 13.1644H73.1011V24.972H71.0847ZM91.6232 25.1591C90.4453 25.1591 89.3781 25.0136 88.4219 24.7225C87.4656 24.4176 86.6341 23.988 85.9273 23.4337L86.6549 21.7291C87.1261 22.0894 87.6112 22.3873 88.1101 22.6229C88.6228 22.8585 89.1633 23.0387 89.7315 23.1634C90.3136 23.2743 90.9442 23.3297 91.6232 23.3297C92.7874 23.3297 93.6397 23.1219 94.1802 22.7061C94.7345 22.2903 95.0117 21.7429 95.0117 21.0638C95.0117 20.4818 94.8177 20.0314 94.4296 19.7126C94.0554 19.3939 93.3902 19.1375 92.434 18.9435L90.1681 18.4861C88.8238 18.2089 87.819 17.7585 87.1538 17.1349C86.5025 16.4974 86.1768 15.6312 86.1768 14.5364C86.1768 13.6494 86.4124 12.8734 86.8836 12.2081C87.3548 11.5429 88.0061 11.0302 88.8377 10.6698C89.683 10.3095 90.667 10.1293 91.7895 10.1293C92.8289 10.1293 93.7852 10.2818 94.6583 10.5867C95.5314 10.8777 96.2659 11.3143 96.8618 11.8963L96.155 13.5386C95.5314 12.9981 94.8662 12.6031 94.1594 12.3537C93.4526 12.0903 92.6488 11.9587 91.748 11.9587C90.6809 11.9587 89.8424 12.1804 89.2326 12.6239C88.6367 13.0674 88.3387 13.6702 88.3387 14.4325C88.3387 15.0422 88.5258 15.5204 88.9 15.8668C89.2881 16.2133 89.9256 16.4766 90.8125 16.6568L93.0784 17.0933C94.4781 17.3844 95.5106 17.8348 96.1758 18.4445C96.841 19.0405 97.1736 19.8651 97.1736 20.9183C97.1736 21.7637 96.945 22.5051 96.4876 23.1426C96.0442 23.7801 95.4067 24.2791 94.5751 24.6394C93.7436 24.9858 92.7597 25.1591 91.6232 25.1591ZM99.8306 24.972V10.3164H109.435V12.0418H101.93V16.6568H108.957V18.403H101.93V23.2258H109.435V24.972H99.8306ZM112.113 24.972V10.3164H118.307C119.873 10.3164 121.086 10.6906 121.945 11.439C122.805 12.1735 123.234 13.206 123.234 14.5364C123.234 15.4095 123.04 16.1579 122.652 16.7815C122.264 17.4051 121.717 17.8833 121.01 18.2159C120.303 18.5346 119.472 18.694 118.515 18.694L118.848 18.3614H119.409C119.977 18.3614 120.483 18.5069 120.927 18.7979C121.384 19.089 121.758 19.5532 122.049 20.1907L124.149 24.972H121.779L119.7 20.17C119.492 19.6017 119.167 19.2345 118.723 19.0682C118.294 18.9019 117.76 18.8187 117.123 18.8187H114.275V24.972H112.113ZM114.275 17.1765H117.954C118.993 17.1765 119.776 16.9547 120.303 16.5113C120.844 16.0678 121.114 15.4303 121.114 14.5988C121.114 13.7534 120.844 13.1159 120.303 12.6863C119.776 12.2566 118.993 12.0418 117.954 12.0418H114.275V17.1765ZM126.007 17.6338C126.007 16.0955 126.277 14.7651 126.818 13.6425C127.358 12.52 128.141 11.6538 129.167 11.044C130.206 10.4342 131.44 10.1293 132.867 10.1293C134.281 10.1293 135.5 10.4342 136.526 11.044C137.551 11.6538 138.341 12.52 138.896 13.6425C139.464 14.7651 139.748 16.0886 139.748 17.613C139.748 19.1513 139.464 20.4887 138.896 21.6251C138.341 22.7477 137.544 23.6208 136.505 24.2444C135.479 24.8542 134.267 25.1591 132.867 25.1591C131.44 25.1591 130.213 24.8542 129.188 24.2444C128.162 23.6208 127.372 22.7477 126.818 21.6251C126.277 20.4887 126.007 19.1583 126.007 17.6338ZM128.273 17.6338C128.273 19.4077 128.661 20.7936 129.437 21.7914C130.213 22.7892 131.356 23.2882 132.867 23.2882C134.336 23.2882 135.472 22.7962 136.276 21.8122C137.08 20.8144 137.482 19.4216 137.482 17.6338C137.482 15.846 137.08 14.4602 136.276 13.4762C135.486 12.4922 134.35 12.0003 132.867 12.0003C131.356 12.0003 130.213 12.4922 129.437 13.4762C128.661 14.4602 128.273 15.846 128.273 17.6338Z" fill="#00426E"></path><path d="M31.5168 14.3069C30.6428 15.0413 29.6172 15.5702 28.5146 15.8551C26.5556 16.3482 23.6807 16.5849 20.0027 15.5691C16.3247 14.5534 13.2196 11.7183 13.2196 11.7183C14.6109 12.4651 16.0925 13.027 17.6274 13.3898C19.6452 13.8829 21.6679 14.0407 24.9149 12.9559C26.776 12.3297 28.6664 10.7717 29.9349 9.55872C28.5911 6.97815 26.5712 4.81716 24.0943 3.31003C21.6174 1.8029 18.778 1.00714 15.8839 1.00902C15.0094 1.00981 14.1363 1.08237 13.2735 1.22597C13.0654 2.46307 12.7085 3.67008 12.2108 4.82039C11.3717 6.61381 10.2779 8.27476 8.9637 9.75101C9.69227 8.19646 10.3189 6.59551 10.8394 4.95845C11.0814 3.91186 11.146 2.83165 11.0305 1.76341C9.01934 2.41868 7.15807 3.47081 5.55535 4.85834C3.95262 6.24587 2.64056 7.94099 1.69579 9.8447C3.87345 10.4263 5.82296 11.6631 7.28385 13.3898C5.92739 12.6648 4.50146 12.08 3.02791 11.6444C2.37186 11.4689 1.69832 11.368 1.01993 11.3436C-0.196396 14.5921 -0.32854 18.151 0.643494 21.4818C1.61553 24.8126 3.63883 27.734 6.4072 29.8039C6.2064 27.4766 6.11335 24.7155 6.53943 22.5361C7.33283 18.4684 10.7219 14.8394 10.7219 14.8394C9.33591 17.709 9.25265 17.5808 8.7629 20.2138C8.34759 22.807 8.80437 25.4655 10.0607 27.7675C11.099 29.5869 12.9993 31.6035 14.253 32.8559C14.7722 32.9052 15.2962 32.9348 15.8251 32.9348C18.1367 32.9447 20.4224 32.4453 22.522 31.4718C24.6216 30.4983 26.4842 29.0742 27.9793 27.2993C29.4744 25.5245 30.5658 23.4418 31.1768 21.1974C31.7879 18.953 31.9039 16.6012 31.5168 14.3069Z" fill="#00426E"></path></svg> 