<?xml version="1.0" encoding="utf-8"?>
<!-- Generator: Adobe Illustrator 22.1.0, SVG Export Plug-In . SVG Version: 6.00 Build 0)  -->
<svg version="1.1" id="Layer_1" xmlns="http://www.w3.org/2000/svg" xmlns:xlink="http://www.w3.org/1999/xlink" x="0px" y="0px"
	 viewBox="0 0 190 53" style="enable-background:new 0 0 190 53;" xml:space="preserve">
<style type="text/css">
	.st0{fill:#2D2D2D;}
	.st1{fill:#EC4D25;}
	.st2{fill:#FFFFFF;}
	.st3{fill:none;stroke:#FFFFFF;stroke-width:0.75;stroke-miterlimit:10;}
	.st4{fill:none;stroke:#FFFFFF;stroke-miterlimit:10;}
	.st5{fill:none;stroke:#EC4D25;stroke-miterlimit:10;}
</style>
<g>
	<g>
		<polygon class="st0" points="69.7,156.5 76.8,156.5 76.8,161.4 69.7,161.4 69.7,175.7 64.2,175.7 64.2,141 78.8,141 78.8,145.9 
			69.7,145.9 		"/>
		<path class="st0" d="M95.7,175.7c-0.2-0.8-0.5-1.5-0.5-4.2V166c0-3.3-1.1-4.5-3.6-4.5h-1.8v14.2h-5.5V141h8.2c5.7,0,8.1,2.7,8.1,8
			v2.8c0,3.6-1.1,5.9-3.6,7c2.8,1.1,3.6,3.8,3.6,7.4v5.3c0,1.7,0,2.9,0.6,4.2H95.7z M89.8,145.9v10.7H92c2.1,0,3.3-0.8,3.3-3.6v-3.4
			c0-2.5-0.8-3.6-2.8-3.6H89.8z"/>
		<path class="st0" d="M125.1,175.7h-5.6l-1-6.3h-6.7l-1,6.3h-5l5.6-34.8h8L125.1,175.7z M112.6,164.7h5.2l-2.7-17.6L112.6,164.7z"
			/>
		<path class="st0" d="M146.4,162.8v4.6c0,5.6-2.8,8.7-8.1,8.7c-5.3,0-8.1-3.2-8.1-8.7v-18.1c0-5.6,2.8-8.7,8.1-8.7s8.1,3.2,8.1,8.7
			v3.4h-5.2V149c0-2.5-1.1-3.4-2.8-3.4s-2.8,1-2.8,3.4v18.8c0,2.5,1.1,3.4,2.8,3.4s2.8-0.8,2.8-3.4v-5
			C141.2,162.8,146.4,162.8,146.4,162.8z"/>
		<polygon class="st0" points="151.1,141 168,141 168,145.9 162.3,145.9 162.3,175.7 156.8,175.7 156.8,145.9 151.1,145.9 		"/>
		<polygon class="st0" points="173.3,141 178.9,141 178.9,170.8 187.9,170.8 187.9,175.7 173.3,175.7 		"/>
	</g>
	<g>
		<path class="st1" d="M1.8,158.3c0,14.3,11.6,25.9,25.9,25.9s25.9-11.6,25.9-25.9c0-14.3-11.6-25.9-25.9-25.9S1.8,144,1.8,158.3"/>
		<g>
			<circle class="st2" cx="27.6" cy="139.2" r="2"/>
			<circle class="st2" cx="27.6" cy="177.5" r="2"/>
			<circle class="st2" cx="46.8" cy="158.3" r="2"/>
			<circle class="st2" cx="8.5" cy="158.3" r="2"/>
			<circle class="st2" cx="41.2" cy="144.8" r="2"/>
			<circle class="st2" cx="14.1" cy="171.9" r="2"/>
			<circle class="st2" cx="41.2" cy="171.9" r="2"/>
			<circle class="st2" cx="14.1" cy="144.8" r="2"/>
			<circle class="st2" cx="20.3" cy="140.6" r="2"/>
			<circle class="st2" cx="35" cy="176.1" r="2"/>
			<circle class="st2" cx="45.3" cy="151" r="1.9"/>
			<circle class="st2" cx="9.9" cy="165.7" r="2"/>
			<circle class="st2" cx="35" cy="140.6" r="2"/>
			<circle class="st2" cx="20.3" cy="176.1" r="1.9"/>
			<circle class="st2" cx="45.3" cy="165.7" r="2"/>
			<circle class="st2" cx="9.9" cy="151" r="2"/>
		</g>
		<line class="st3" x1="27.6" y1="139.2" x2="27.6" y2="177.5"/>
		<line class="st3" x1="46.8" y1="158.3" x2="8.5" y2="158.3"/>
		<line class="st3" x1="41.2" y1="144.8" x2="14.1" y2="171.9"/>
		<line class="st3" x1="41.2" y1="171.9" x2="14.1" y2="144.8"/>
		<polyline class="st3" points="20.3,140.6 20.3,151 9.9,151 		"/>
		<polyline class="st3" points="35,140.6 35,151 45.3,151 		"/>
		<polyline class="st3" points="20.3,140.6 20.3,151 9.9,151 		"/>
		<polyline class="st3" points="35,140.6 35,151 45.3,151 		"/>
		<polyline class="st3" points="9.9,165.7 20.3,165.7 20.3,176.1 		"/>
		<polyline class="st3" points="35,176.1 35,165.7 45.3,165.7 		"/>
		<g>
			<polyline class="st3" points="9.9,151 17.3,158.4 9.9,165.7 			"/>
			<polyline class="st3" points="45.3,151 38,158.4 45.3,165.7 			"/>
		</g>
		<g>
			<polyline class="st3" points="20.3,176.1 27.6,168.7 35,176 			"/>
			<polyline class="st3" points="20.3,140.6 27.6,148 35,140.7 			"/>
		</g>
	</g>
</g>
<rect x="246" y="-38" class="st1" width="248" height="115"/>
<g>
	<polygon class="st0" points="325.6,183.2 331.3,183.2 331.3,187.1 325.6,187.1 325.6,198.4 321.3,198.4 321.3,171 332.8,171 
		332.8,174.9 325.6,174.9 	"/>
	<path class="st0" d="M346.1,198.4c-0.2-0.7-0.4-1.1-0.4-3.3v-4.3c0-2.6-0.9-3.5-2.9-3.5h-1.4v11.2h-4.3V171h6.5
		c4.5,0,6.4,2.1,6.4,6.3v2.2c0,2.9-0.9,4.7-2.9,5.5c2.2,0.9,2.9,3,2.9,5.8v4.2c0,1.3,0,2.3,0.5,3.3H346.1z M341.5,174.9v8.4h1.7
		c1.6,0,2.6-0.7,2.6-2.9v-2.7c0-2-0.7-2.9-2.2-2.9H341.5z"/>
	<path class="st0" d="M369.2,198.4h-4.4l-0.8-5h-5.2l-0.8,5h-3.9l4.4-27.4h6.3L369.2,198.4z M359.4,189.7h4.1l-2.1-13.8L359.4,189.7
		z"/>
	<path class="st0" d="M386,188.2v3.6c0,4.4-2.2,6.9-6.4,6.9s-6.4-2.5-6.4-6.9v-14.2c0-4.4,2.2-6.9,6.4-6.9s6.4,2.5,6.4,6.9v2.7h-4.1
		v-3c0-2-0.9-2.7-2.2-2.7s-2.2,0.8-2.2,2.7v14.8c0,2,0.9,2.7,2.2,2.7s2.2-0.7,2.2-2.7v-3.9C381.9,188.2,386,188.2,386,188.2z"/>
	<polygon class="st0" points="389.8,171 403,171 403,174.9 398.5,174.9 398.5,198.4 394.2,198.4 394.2,174.9 389.8,174.9 	"/>
	<polygon class="st0" points="407.2,171 411.6,171 411.6,194.5 418.7,194.5 418.7,198.4 407.2,198.4 	"/>
</g>
<path class="st1" d="M339.7,134.7c0,16.8,13.6,30.3,30.3,30.3s30.3-13.6,30.3-30.3s-13.6-30.3-30.3-30.3S339.7,117.9,339.7,134.7"/>
<g>
	<circle class="st2" cx="370" cy="112.2" r="2.3"/>
	<circle class="st2" cx="370" cy="157.2" r="2.3"/>
	<circle class="st2" cx="392.5" cy="134.7" r="2.3"/>
	<circle class="st2" cx="347.5" cy="134.7" r="2.3"/>
	<circle class="st2" cx="385.9" cy="118.8" r="2.3"/>
	<circle class="st2" cx="354.1" cy="150.6" r="2.3"/>
	<circle class="st2" cx="385.9" cy="150.6" r="2.3"/>
	<circle class="st2" cx="354.1" cy="118.8" r="2.3"/>
	<circle class="st2" cx="361.4" cy="113.9" r="2.3"/>
	<circle class="st2" cx="378.6" cy="155.5" r="2.3"/>
	<circle class="st2" cx="390.8" cy="126.1" r="2.2"/>
	<circle class="st2" cx="349.2" cy="143.3" r="2.3"/>
	<circle class="st2" cx="378.6" cy="113.9" r="2.3"/>
	<circle class="st2" cx="361.4" cy="155.5" r="2.2"/>
	<circle class="st2" cx="390.8" cy="143.3" r="2.3"/>
	<circle class="st2" cx="349.2" cy="126.1" r="2.3"/>
</g>
<line class="st4" x1="370" y1="112.2" x2="370" y2="157.2"/>
<line class="st4" x1="392.5" y1="134.7" x2="347.5" y2="134.7"/>
<line class="st4" x1="385.9" y1="118.8" x2="354.1" y2="150.6"/>
<line class="st4" x1="385.9" y1="150.6" x2="354.1" y2="118.8"/>
<polyline class="st4" points="361.4,113.9 361.4,126.1 349.2,126.1 "/>
<polyline class="st4" points="378.6,113.9 378.6,126.1 390.8,126.1 "/>
<polyline class="st4" points="361.4,113.9 361.4,126.1 349.2,126.1 "/>
<polyline class="st4" points="378.6,113.9 378.6,126.1 390.8,126.1 "/>
<polyline class="st4" points="349.2,143.3 361.4,143.3 361.4,155.5 "/>
<polyline class="st4" points="378.6,155.5 378.6,143.3 390.8,143.3 "/>
<g>
	<polyline class="st4" points="349.2,126.1 357.8,134.7 349.2,143.3 	"/>
	<polyline class="st4" points="390.8,126.1 382.2,134.7 390.8,143.3 	"/>
</g>
<g>
	<polyline class="st4" points="361.4,155.5 370,146.8 378.6,155.4 	"/>
	<polyline class="st4" points="361.4,113.9 370,122.5 378.6,113.9 	"/>
</g>
<g>
	<g>
		<polygon class="st2" points="325.6,51.2 331.3,51.2 331.3,55.1 325.6,55.1 325.6,66.4 321.3,66.4 321.3,39 332.8,39 332.8,42.9 
			325.6,42.9 		"/>
		<path class="st2" d="M346.1,66.4c-0.2-0.7-0.4-1.1-0.4-3.3v-4.3c0-2.6-0.9-3.5-2.9-3.5h-1.4v11.2h-4.3V39h6.5
			c4.5,0,6.4,2.1,6.4,6.3v2.2c0,2.9-0.9,4.7-2.9,5.5c2.2,0.9,2.9,3,2.9,5.8V63c0,1.3,0,2.3,0.5,3.3H346.1z M341.5,42.9v8.4h1.7
			c1.6,0,2.6-0.7,2.6-2.9v-2.7c0-2-0.7-2.9-2.2-2.9H341.5z"/>
		<path class="st2" d="M369.2,66.4h-4.4l-0.8-5h-5.2l-0.8,5h-3.9l4.4-27.4h6.3L369.2,66.4z M359.4,57.7h4.1l-2.1-13.8L359.4,57.7z"
			/>
		<path class="st2" d="M386,56.2v3.6c0,4.4-2.2,6.9-6.4,6.9s-6.4-2.5-6.4-6.9V45.6c0-4.4,2.2-6.9,6.4-6.9s6.4,2.5,6.4,6.9v2.7h-4.1
			v-3c0-2-0.9-2.7-2.2-2.7s-2.2,0.8-2.2,2.7v14.8c0,2,0.9,2.7,2.2,2.7s2.2-0.7,2.2-2.7v-3.9C381.9,56.2,386,56.2,386,56.2z"/>
		<polygon class="st2" points="389.8,39 403,39 403,42.9 398.5,42.9 398.5,66.4 394.2,66.4 394.2,42.9 389.8,42.9 		"/>
		<polygon class="st2" points="407.2,39 411.6,39 411.6,62.5 418.7,62.5 418.7,66.4 407.2,66.4 		"/>
	</g>
	<path class="st2" d="M339.7,2.7c0,16.8,13.6,30.3,30.3,30.3s30.3-13.6,30.3-30.3S386.8-27.7,370-27.7S339.7-14.1,339.7,2.7"/>
	<g>
		<circle class="st1" cx="370" cy="-19.8" r="2.3"/>
		<circle class="st1" cx="370" cy="25.2" r="2.3"/>
		<circle class="st1" cx="392.5" cy="2.7" r="2.3"/>
		<circle class="st1" cx="347.5" cy="2.7" r="2.3"/>
		<circle class="st1" cx="385.9" cy="-13.2" r="2.3"/>
		<circle class="st1" cx="354.1" cy="18.6" r="2.3"/>
		<circle class="st1" cx="385.9" cy="18.6" r="2.3"/>
		<circle class="st1" cx="354.1" cy="-13.2" r="2.3"/>
		<circle class="st1" cx="361.4" cy="-18.1" r="2.3"/>
		<circle class="st1" cx="378.6" cy="23.5" r="2.3"/>
		<circle class="st1" cx="390.8" cy="-5.9" r="2.2"/>
		<circle class="st1" cx="349.2" cy="11.3" r="2.3"/>
		<circle class="st1" cx="378.6" cy="-18.1" r="2.3"/>
		<circle class="st1" cx="361.4" cy="23.5" r="2.2"/>
		<circle class="st1" cx="390.8" cy="11.3" r="2.3"/>
		<circle class="st1" cx="349.2" cy="-5.9" r="2.3"/>
	</g>
	<line class="st5" x1="370" y1="-19.8" x2="370" y2="25.2"/>
	<line class="st5" x1="392.5" y1="2.7" x2="347.5" y2="2.7"/>
	<line class="st5" x1="385.9" y1="-13.2" x2="354.1" y2="18.6"/>
	<line class="st5" x1="385.9" y1="18.6" x2="354.1" y2="-13.2"/>
	<polyline class="st5" points="361.4,-18.1 361.4,-5.9 349.2,-5.9 	"/>
	<polyline class="st5" points="378.6,-18.1 378.6,-5.9 390.8,-5.9 	"/>
	<polyline class="st5" points="361.4,-18.1 361.4,-5.9 349.2,-5.9 	"/>
	<polyline class="st5" points="378.6,-18.1 378.6,-5.9 390.8,-5.9 	"/>
	<polyline class="st5" points="349.2,11.3 361.4,11.3 361.4,23.5 	"/>
	<polyline class="st5" points="378.6,23.5 378.6,11.3 390.8,11.3 	"/>
	<g>
		<polyline class="st5" points="349.2,-5.9 357.8,2.7 349.2,11.3 		"/>
		<polyline class="st5" points="390.8,-5.9 382.2,2.7 390.8,11.3 		"/>
	</g>
	<g>
		<polyline class="st5" points="361.4,23.5 370,14.8 378.6,23.4 		"/>
		<polyline class="st5" points="361.4,-18.1 370,-9.5 378.6,-18.1 		"/>
	</g>
</g>
<g>
	<g>
		<polygon class="st2" points="69.4,24.6 76.7,24.6 76.7,29.7 69.4,29.7 69.4,44.3 63.8,44.3 63.8,8.7 78.6,8.7 78.6,13.8 
			69.4,13.8 		"/>
		<path class="st2" d="M96,44.3c-0.2-0.9-0.5-1.5-0.5-4.3v-5.6c0-3.3-1.1-4.6-3.7-4.6h-1.9v14.5h-5.6V8.7h8.4c5.8,0,8.3,2.7,8.3,8.2
			v2.8c0,3.7-1.1,6.1-3.7,7.2c2.8,1.1,3.7,3.8,3.7,7.5v5.4c0,1.7,0,3,0.6,4.3H96z M89.9,13.8v10.9h2.2c2.1,0,3.3-0.9,3.3-3.7v-3.5
			c0-2.6-0.9-3.7-2.8-3.7H89.9z"/>
		<path class="st2" d="M125.9,44.3h-5.7l-1-6.4h-6.8l-1,6.4h-5.1L112,8.7h8.2L125.9,44.3z M113.2,33h5.3l-2.7-17.9L113.2,33z"/>
		<path class="st2" d="M147.7,31v4.7c0,5.7-2.8,8.9-8.3,8.9c-5.4,0-8.3-3.2-8.3-8.9V17.3c0-5.7,2.8-8.9,8.3-8.9s8.3,3.2,8.3,8.9v3.5
			h-5.3v-3.8c0-2.6-1.1-3.5-2.8-3.5s-2.8,1-2.8,3.5v19.2c0,2.6,1.1,3.5,2.8,3.5s2.8-0.9,2.8-3.5V31C142.4,31,147.7,31,147.7,31z"/>
		<polygon class="st2" points="152.5,8.7 169.7,8.7 169.7,13.8 163.9,13.8 163.9,44.3 158.3,44.3 158.3,13.8 152.5,13.8 		"/>
		<polygon class="st2" points="175.2,8.7 180.8,8.7 180.8,39.2 190,39.2 190,44.3 175.2,44.3 		"/>
	</g>
	<g>
		<path class="st2" d="M25.5,26.1l-6.7-6.7h-8.4c0,0.1-0.1,0.3-0.1,0.4c-0.1,0.1-0.1,0.3-0.2,0.4l6,6H25.5z"/>
		<path class="st2" d="M33.5,10.4c-0.1,0-0.3-0.1-0.4-0.1c-0.1-0.1-0.2-0.1-0.4-0.2l-6,6v9.5l6.7-6.7V10.4z"/>
		<path class="st2" d="M42.7,19.7c0-0.1-0.1-0.2-0.1-0.4h-8.6l-6.7,6.7h9.5l6.1-6.1C42.8,20,42.8,19.9,42.7,19.7z"/>
		<path class="st2" d="M19.7,10.3c-0.1,0.1-0.3,0.1-0.4,0.1v8.4l6.7,6.7v-9.5l-6-6C20,10.2,19.8,10.3,19.7,10.3z"/>
		<path class="st2" d="M27.3,26.9l6.7,6.7h8.4c0-0.1,0.1-0.3,0.1-0.4c0.1-0.1,0.1-0.2,0.2-0.4l-6-6H27.3z"/>
		<path class="st2" d="M26.8,36.9l6,6c0.1-0.1,0.2-0.1,0.4-0.2c0.1-0.1,0.3-0.1,0.4-0.1v-8.4l-6.7-6.7V36.9z"/>
		<path class="st2" d="M16,26.9l-6,6c0.1,0.1,0.1,0.2,0.2,0.4c0.1,0.1,0.1,0.3,0.1,0.4h8.4l6.7-6.7H16z"/>
		<path class="st2" d="M26.4,0.1C11.8,0.1,0,11.9,0,26.5s11.8,26.4,26.4,26.4s26.4-11.8,26.4-26.4S41,0.1,26.4,0.1z M43.3,32.3
			c0.6-0.4,1.3-0.5,1.9-0.2c1,0.4,1.5,1.6,1.1,2.7c-0.4,1-1.6,1.5-2.7,1.1c-0.7-0.3-1.1-0.9-1.2-1.5h-7.7l4.3,4.3
			c0.8-0.5,1.9-0.5,2.6,0.2c0.8,0.8,0.8,2.1,0,2.9s-2.1,0.8-2.9,0c-0.7-0.7-0.8-1.8-0.2-2.6l-4.3-4.3v7.7c0.7,0.1,1.2,0.6,1.5,1.2
			c0.4,1-0.1,2.2-1.1,2.7c-1,0.4-2.2-0.1-2.7-1.1c-0.3-0.7-0.2-1.4,0.2-1.9L26.8,38v6.1c0.9,0.2,1.7,1,1.7,2c0,1.1-0.9,2-2,2
			c-1.1,0-2-0.9-2-2c0-1,0.7-1.8,1.7-2V38l-5.5,5.5c0.3,0.5,0.4,1.2,0.2,1.8c-0.4,1-1.5,1.4-2.5,1c-1-0.4-1.4-1.5-1-2.5
			c0.3-0.6,0.8-1,1.4-1.1v-7.8l-4.3,4.3c0.5,0.8,0.5,1.9-0.2,2.6c-0.8,0.8-2.1,0.8-2.9,0s-0.8-2.1,0-2.9c0.7-0.7,1.8-0.8,2.6-0.2
			l4.3-4.3h-7.7c-0.1,0.7-0.6,1.2-1.2,1.5c-1,0.4-2.2-0.1-2.7-1.1c-0.4-1,0.1-2.2,1.1-2.7c0.7-0.3,1.4-0.2,1.9,0.2l5.4-5.4H8.9
			c-0.2,0.9-1,1.7-2,1.7c-1.1,0-2-0.9-2-2c0-1.1,0.9-2,2-2c1,0,1.8,0.7,2,1.7h6.1l-5.4-5.4c-0.6,0.4-1.3,0.5-1.9,0.2
			c-1-0.4-1.5-1.6-1.1-2.7c0.4-1,1.6-1.5,2.7-1.1c0.7,0.3,1.1,0.9,1.2,1.5H18l-4.3-4.3c-0.8,0.5-1.9,0.5-2.6-0.2
			c-0.8-0.8-0.8-2.1,0-2.9s2.1-0.8,2.9,0c0.7,0.7,0.8,1.8,0.2,2.6l4.3,4.3v-7.7c-0.7-0.1-1.2-0.6-1.5-1.2c-0.4-1,0.1-2.2,1.1-2.7
			c1-0.4,2.2,0.1,2.7,1.1C21.1,8.3,21,9,20.6,9.6L26,15V8.9c-0.9-0.2-1.7-1-1.7-2c0-1.1,0.9-2,2-2c1.1,0,2,0.9,2,2
			c0,1-0.7,1.8-1.7,2V15l5.4-5.4C31.8,9,31.7,8.3,32,7.6c0.4-1,1.6-1.5,2.7-1.1c1,0.4,1.5,1.6,1.1,2.7c-0.3,0.7-0.9,1.1-1.5,1.2v7.7
			l4.3-4.3c-0.5-0.8-0.5-1.9,0.2-2.6c0.8-0.8,2.1-0.8,2.9,0s0.8,2.1,0,2.9c-0.7,0.7-1.8,0.8-2.6,0.2l-4.3,4.3h7.8
			c0.1-0.6,0.5-1.1,1.1-1.4c1-0.4,2.1,0.1,2.5,1c0.4,1-0.1,2.1-1,2.5c-0.6,0.3-1.3,0.2-1.8-0.2l-5.5,5.5H44c0.2-0.9,1-1.7,2-1.7
			c1.1,0,2,0.9,2,2c0,1.1-0.9,2-2,2c-1,0-1.8-0.7-2-1.7h-6.1L43.3,32.3z"/>
		<path class="st2" d="M19.3,42.7c0.1,0,0.2,0.1,0.4,0.1s0.2,0.1,0.3,0.2l6.1-6.1v-9.5l-6.7,6.7V42.7z"/>
	</g>
</g>
</svg>
