<svg version="1.1" id="Layer_1" xmlns:x="ns_extend;" xmlns:i="ns_ai;" xmlns:graph="ns_graphs;" xmlns="http://www.w3.org/2000/svg" xmlns:xlink="http://www.w3.org/1999/xlink" x="0px" y="0px" viewBox="0 0 410.2 100" style="enable-background:new 0 0 410.2 100;" xml:space="preserve">
 <style type="text/css">
  .st0{fill:#FFFFFF;}
	.st1{fill:#00AC4E;}
 </style>
 <metadata>
  <sfw xmlns="ns_sfw;">
   <slices>
   </slices>
   <sliceSourceBounds bottomLeftOrigin="true" height="100" width="410.2" x="95.6" y="-250.2">
   </sliceSourceBounds>
  </sfw>
 </metadata>
 <g>
  <path class="st0" d="M97.9,24.2l-0.7,3.4h-0.2c-0.9-2-3.3-4.6-8.7-4.6c-8.7,0-17.6,6.8-19.5,17.4c-1.7,9.3,2.8,17.4,13.1,17.4
		c3.8,0,8.1-1.5,10.4-4.6h0.2L92,56.7h9.6l6-32.4L97.9,24.2z M94.8,40.5c-0.6,3.2-3.6,8.4-9.7,8.4c-6,0-7.1-5.2-6.6-8.2
		c0.7-3.7,4-8.4,9.6-8.4C93.8,32.2,95.5,36.5,94.8,40.5z">
  </path>
  <path class="st0" d="M113,24.2h9.1l-0.6,3.4h0.2c1.1-1.6,3.4-4.6,9-4.6l-1.8,9.9c-4.6,0.1-7.9,1-8.8,6l-3.3,17.8H107L113,24.2z">
  </path>
  <path class="st0" d="M137.1,11.5h9.7L142.3,36h0.2l11.3-11.8h11.4l-14.9,14.3l8.5,18.2h-11.1l-6.3-15.7h-0.2l-2.8,15.7h-9.8
		L137.1,11.5z">
  </path>
  <path class="st0" d="M180.7,23.1c-9.9,0-18.6,8.4-20.3,17.5c-1.8,9.6,4.7,17.2,14,17.2c3.3,0,6.8-1,9.7-2.9
		c3.1-1.9,5.9-4.6,8.2-8.3h-9.9c-1.6,1.7-3.5,3-6.5,3c-3.8,0-6.6-2.2-6.4-6.1h24.3c0.3-0.8,0.4-1.3,0.7-2.6
		C196.4,31,190.7,23.1,180.7,23.1z M170.9,36.9c0.8-2,3.4-5.6,8.4-5.6s6.3,3.6,6.3,5.6H170.9z">
  </path>
  <path class="st0" d="M56,11.5L38.8,37.2h-0.2V11.5h-8.3L0,56.7h11.8l17-25.8H29v25.8h8.4l17-25.8h0.2v25.8h9.7V11.5H56z">
  </path>
  <path class="st0" d="M219.2,24.2h-6.1l1.8-9.6h-8.5l-0.7,3.7c-0.8,4.2-3.4,5.5-7,5.9h-0.1l-1.4,7.3h4.8l-4.6,25.1h9.7l4.6-25.1h6.2
		L219.2,24.2z">
  </path>
  <path class="st1" d="M369.6,44.4c-3.2,7.3-10.8,13.4-19.5,13.4c-9.9,0-16-7.7-14.2-17.4c1.8-9.5,10.6-17.3,20.4-17.3
		c8.6,0,14.5,5.7,14.6,13.7H361c-0.6-2.2-2.1-4.6-6.2-4.6c-4.6-0.2-8.4,3.6-9.2,8.2c-0.9,4.7,1.5,8.3,6.2,8.3c4,0,6.4-2.3,7.8-4.4
		H369.6z M289,0l-18.9,11.5h5.3l-17.1,25.8h-0.2V11.5h-8.4l-17.1,25.8h-0.2V11.5h-9.7v45.2h8.4L248.3,31h0.2v25.8h8.4l30.3-45.2h4.8
		L289,0z M307.5,56.7h-9.6l0.6-3.5h-0.2c-2.2,3.2-6.6,4.6-10.4,4.6c-10.3,0-14.8-8.1-13.1-17.4c2-10.6,10.8-17.4,19.5-17.4
		c5.3,0,7.8,2.6,8.7,4.6h0.2l0.7-3.4h9.6L307.5,56.7z M291.2,48.8c6,0,9.1-5.2,9.7-8.4c0.7-3.9-1.1-8.2-6.6-8.2
		c-5.5,0-8.9,4.6-9.6,8.4C284,43.6,285.2,48.8,291.2,48.8z M337.9,24.2h-6.1l1.8-9.6H325l-0.7,3.7c-0.8,4.2-3.4,5.5-7,5.9h-0.1
		l-1.4,7.3h4.8L316,56.7h9.7l4.6-25.1h6.2L337.9,24.2z M378.7,11.5h9.7l-2.9,16.1h0.2c2.1-3,4.9-4.6,9.1-4.6c3.1,0,6.6,1.1,8.2,3.6
		c2.1,3.2,1.9,6,0.8,11.9l-3.3,18.1h-9.7L394,39c0.3-1.6,1.3-6.8-4-6.8c-5.2,0-6.4,4.9-6.6,6.5l-3.3,18h-9.7L378.7,11.5z">
  </path>
  <path class="st1" d="M407.3,50.8c1.6,0,2.9,1.4,2.9,3s-1.3,3-2.9,3c-1.6,0-2.9-1.3-2.9-3C404.3,52.2,405.6,50.8,407.3,50.8z
		 M407.2,51.3c-1.4,0-2.4,1.1-2.4,2.4c0,1.3,1.1,2.4,2.4,2.4c1.4,0,2.4-1.1,2.4-2.4C409.7,52.4,408.6,51.3,407.2,51.3z M407.4,52.2
		c0.5,0,1.2,0.2,1.2,0.9c0,0.3-0.1,0.6-0.5,0.8c0.3,0.1,0.5,0.3,0.5,0.8c0.1,0.6,0.1,0.7,0.1,0.8H408c-0.1-0.1-0.1-0.5-0.1-0.8
		s-0.1-0.5-0.7-0.5h-0.5v1.4H406v-3.3H407.4z M406.7,52.6v1h0.5c0.2,0,0.7,0,0.7-0.5c0-0.5-0.4-0.5-0.7-0.5H406.7z">
  </path>
  <path class="st0" d="M12.3,95.3h-1.1c-0.2,0-0.4,0-0.6-0.1c-0.1-0.1-0.2-0.2-0.3-0.5L10,93.4C9.7,93.7,9.3,94,9,94.3
		c-0.3,0.3-0.7,0.5-1.1,0.7c-0.4,0.2-0.8,0.3-1.2,0.4c-0.4,0.1-0.9,0.1-1.4,0.1c-0.5,0-1.1-0.1-1.5-0.2c-0.5-0.2-0.9-0.4-1.2-0.7
		c-0.3-0.3-0.6-0.7-0.8-1.1c-0.2-0.5-0.3-1-0.3-1.7c0-0.6,0.2-1.1,0.5-1.6c0.3-0.5,0.8-1,1.5-1.4c0.7-0.4,1.6-0.7,2.7-1
		c1.1-0.3,2.4-0.4,4-0.4v-1.1c0-1.1-0.2-1.9-0.7-2.5c-0.5-0.6-1.1-0.8-2.1-0.8c-0.6,0-1.1,0.1-1.5,0.2c-0.4,0.1-0.8,0.3-1.1,0.5
		C4.2,84,4,84.1,3.7,84.3c-0.2,0.1-0.4,0.2-0.6,0.2c-0.2,0-0.3,0-0.4-0.1c-0.1-0.1-0.2-0.2-0.3-0.3l-0.4-0.8
		c0.8-0.7,1.6-1.3,2.5-1.7c0.9-0.4,1.9-0.6,3-0.6c0.8,0,1.5,0.1,2.1,0.4c0.6,0.3,1.1,0.6,1.5,1.1c0.4,0.5,0.7,1,0.9,1.7
		c0.2,0.7,0.3,1.4,0.3,2.1V95.3z M5.9,93.8c0.4,0,0.8,0,1.2-0.1c0.4-0.1,0.7-0.2,1-0.4c0.3-0.2,0.6-0.4,0.9-0.6
		c0.3-0.2,0.6-0.5,0.9-0.8V89c-1.1,0-2.1,0.1-2.9,0.3c-0.8,0.1-1.4,0.3-1.9,0.6C4.5,90,4.2,90.3,4,90.6c-0.2,0.3-0.3,0.7-0.3,1
		c0,0.4,0.1,0.7,0.2,1c0.1,0.3,0.3,0.5,0.5,0.7c0.2,0.2,0.4,0.3,0.7,0.4C5.3,93.7,5.6,93.8,5.9,93.8z">
  </path>
  <path class="st0" d="M38.8,85.4c0,1.5-0.2,2.8-0.7,4c-0.5,1.2-1.1,2.3-2,3.1c-0.9,0.9-1.9,1.5-3.1,2c-1.2,0.5-2.5,0.7-4,0.7h-7.4
		V75.5h7.4c1.5,0,2.8,0.2,4,0.7c1.2,0.5,2.2,1.1,3.1,2c0.9,0.9,1.5,1.9,2,3.1C38.6,82.6,38.8,83.9,38.8,85.4z M36.1,85.4
		c0-1.2-0.2-2.3-0.5-3.3c-0.3-1-0.8-1.8-1.4-2.4c-0.6-0.7-1.3-1.2-2.2-1.5c-0.9-0.3-1.8-0.5-2.9-0.5h-4.7v15.4h4.7
		c1.1,0,2-0.2,2.9-0.5c0.9-0.3,1.6-0.8,2.2-1.5c0.6-0.7,1.1-1.5,1.4-2.4C35.9,87.7,36.1,86.6,36.1,85.4z">
  </path>
  <path class="st0" d="M47.7,81.1c1,0,1.9,0.2,2.8,0.5c0.8,0.3,1.5,0.8,2.1,1.4c0.6,0.6,1,1.4,1.3,2.3c0.3,0.9,0.5,1.9,0.5,3
		c0,1.1-0.2,2.1-0.5,3c-0.3,0.9-0.7,1.6-1.3,2.3c-0.6,0.6-1.3,1.1-2.1,1.4c-0.8,0.3-1.7,0.5-2.8,0.5c-1,0-1.9-0.2-2.8-0.5
		c-0.8-0.3-1.5-0.8-2.1-1.4c-0.6-0.6-1-1.4-1.3-2.3c-0.3-0.9-0.5-1.9-0.5-3c0-1.1,0.2-2.1,0.5-3c0.3-0.9,0.8-1.6,1.3-2.3
		c0.6-0.6,1.3-1.1,2.1-1.4C45.8,81.3,46.7,81.1,47.7,81.1z M47.7,93.6c1.4,0,2.4-0.5,3.1-1.4c0.7-0.9,1-2.2,1-3.9c0-1.7-0.3-3-1-3.9
		c-0.7-0.9-1.7-1.4-3.1-1.4c-0.7,0-1.3,0.1-1.8,0.4c-0.5,0.2-0.9,0.6-1.3,1c-0.3,0.5-0.6,1-0.8,1.7c-0.2,0.7-0.2,1.4-0.2,2.2
		c0,0.8,0.1,1.6,0.2,2.2c0.2,0.7,0.4,1.2,0.8,1.7c0.3,0.4,0.8,0.8,1.3,1C46.4,93.4,47,93.6,47.7,93.6z">
  </path>
  <path class="st0" d="M55.6,81.3h1.9c0.2,0,0.4,0.1,0.5,0.2c0.1,0.1,0.2,0.2,0.3,0.4l2.7,9c0.1,0.3,0.1,0.7,0.2,1
		c0.1,0.3,0.1,0.6,0.2,0.9c0.1-0.3,0.2-0.6,0.2-0.9c0.1-0.3,0.2-0.6,0.3-1l2.9-9c0-0.1,0.1-0.3,0.2-0.3c0.1-0.1,0.3-0.1,0.4-0.1h1.1
		c0.2,0,0.3,0,0.5,0.1c0.1,0.1,0.2,0.2,0.2,0.3l2.9,9c0.1,0.3,0.2,0.6,0.3,1c0.1,0.3,0.2,0.6,0.2,0.9c0-0.3,0.1-0.6,0.2-1
		c0.1-0.3,0.2-0.6,0.2-0.9l2.7-9c0-0.1,0.1-0.3,0.3-0.4c0.1-0.1,0.3-0.2,0.5-0.2h1.8l-4.5,14h-1.9c-0.2,0-0.4-0.2-0.5-0.5l-3.1-9.5
		c-0.1-0.2-0.1-0.4-0.2-0.6c0-0.2-0.1-0.4-0.1-0.6c0,0.2-0.1,0.4-0.1,0.6c0,0.2-0.1,0.4-0.2,0.6l-3.1,9.5c-0.1,0.3-0.3,0.5-0.6,0.5
		h-1.8L55.6,81.3z">
  </path>
  <path class="st0" d="M91.6,88.5c0,1.1-0.1,2.1-0.4,3c-0.3,0.9-0.7,1.6-1.2,2.2c-0.5,0.6-1.2,1.1-1.9,1.4c-0.8,0.3-1.7,0.5-2.7,0.5
		c-0.9,0-1.8-0.1-2.8-0.4c0-0.3,0-0.5,0.1-0.8c0-0.3,0.1-0.5,0.1-0.8c0-0.2,0.1-0.3,0.2-0.4c0.1-0.1,0.2-0.2,0.4-0.2
		c0.2,0,0.4,0,0.7,0.1c0.3,0.1,0.6,0.1,1.1,0.1c0.6,0,1.1-0.1,1.6-0.3c0.5-0.2,0.9-0.5,1.2-0.9c0.3-0.4,0.6-0.9,0.7-1.5
		c0.2-0.6,0.3-1.3,0.3-2.1v-13h2.7V88.5z">
  </path>
  <path class="st0" d="M101.7,81.1c1,0,1.9,0.2,2.8,0.5c0.8,0.3,1.5,0.8,2.1,1.4c0.6,0.6,1,1.4,1.3,2.3c0.3,0.9,0.5,1.9,0.5,3
		c0,1.1-0.2,2.1-0.5,3c-0.3,0.9-0.7,1.6-1.3,2.3c-0.6,0.6-1.3,1.1-2.1,1.4c-0.8,0.3-1.7,0.5-2.8,0.5c-1,0-1.9-0.2-2.8-0.5
		c-0.8-0.3-1.5-0.8-2.1-1.4c-0.6-0.6-1-1.4-1.3-2.3c-0.3-0.9-0.5-1.9-0.5-3c0-1.1,0.2-2.1,0.5-3c0.3-0.9,0.8-1.6,1.3-2.3
		c0.6-0.6,1.3-1.1,2.1-1.4C99.8,81.3,100.7,81.1,101.7,81.1z M101.7,93.6c1.4,0,2.4-0.5,3.1-1.4c0.7-0.9,1-2.2,1-3.9
		c0-1.7-0.3-3-1-3.9c-0.7-0.9-1.7-1.4-3.1-1.4c-0.7,0-1.3,0.1-1.8,0.4c-0.5,0.2-0.9,0.6-1.3,1c-0.3,0.5-0.6,1-0.8,1.7
		c-0.2,0.7-0.2,1.4-0.2,2.2c0,0.8,0.1,1.6,0.2,2.2c0.2,0.7,0.4,1.2,0.8,1.7c0.3,0.4,0.8,0.8,1.3,1C100.4,93.4,101,93.6,101.7,93.6z">
  </path>
  <path class="st0" d="M111.4,95.3v-14h1.5c0.3,0,0.6,0.2,0.7,0.5l0.2,1.5c0.6-0.7,1.3-1.2,2-1.6c0.8-0.4,1.6-0.6,2.6-0.6
		c0.8,0,1.4,0.1,2,0.4c0.6,0.2,1.1,0.6,1.5,1.1c0.4,0.5,0.7,1,0.9,1.7c0.2,0.7,0.3,1.4,0.3,2.2v8.9h-2.5v-8.9c0-1.1-0.2-1.9-0.7-2.5
		c-0.5-0.6-1.2-0.9-2.2-0.9c-0.7,0-1.4,0.2-2,0.5c-0.6,0.3-1.2,0.8-1.7,1.4v10.3H111.4z">
  </path>
  <path class="st0" d="M132.2,81.1c0.8,0,1.6,0.1,2.3,0.4c0.7,0.3,1.3,0.7,1.8,1.2c0.5,0.5,0.9,1.2,1.2,2c0.3,0.8,0.4,1.7,0.4,2.6
		c0,0.4,0,0.6-0.1,0.8c-0.1,0.1-0.2,0.2-0.5,0.2h-9.3c0,0.9,0.1,1.6,0.4,2.3c0.2,0.7,0.5,1.2,0.9,1.6c0.4,0.4,0.8,0.8,1.4,1
		c0.5,0.2,1.1,0.3,1.8,0.3c0.6,0,1.1-0.1,1.6-0.2c0.5-0.1,0.8-0.3,1.2-0.5c0.3-0.2,0.6-0.3,0.8-0.5c0.2-0.1,0.4-0.2,0.6-0.2
		c0.2,0,0.4,0.1,0.5,0.2l0.7,0.9c-0.3,0.4-0.7,0.7-1.1,1c-0.4,0.3-0.9,0.5-1.4,0.7c-0.5,0.2-1,0.3-1.5,0.4c-0.5,0.1-1,0.1-1.5,0.1
		c-1,0-1.9-0.2-2.7-0.5c-0.8-0.3-1.5-0.8-2.1-1.4c-0.6-0.6-1-1.4-1.4-2.3c-0.3-0.9-0.5-2-0.5-3.2c0-1,0.1-1.9,0.4-2.7
		c0.3-0.8,0.7-1.6,1.3-2.2c0.6-0.6,1.2-1.1,2.1-1.5C130.3,81.3,131.2,81.1,132.2,81.1z M132.3,82.9c-1.2,0-2.1,0.3-2.8,1
		c-0.7,0.7-1.1,1.6-1.3,2.8h7.6c0-0.6-0.1-1.1-0.2-1.6c-0.2-0.5-0.4-0.9-0.7-1.2c-0.3-0.3-0.7-0.6-1.1-0.8
		C133.3,83,132.8,82.9,132.3,82.9z">
  </path>
  <path class="st0" d="M149.1,83.6c-0.1,0.2-0.3,0.3-0.5,0.3c-0.1,0-0.3-0.1-0.5-0.2c-0.2-0.1-0.4-0.2-0.6-0.3
		c-0.2-0.1-0.5-0.2-0.9-0.3c-0.3-0.1-0.8-0.2-1.2-0.2c-0.4,0-0.8,0.1-1.1,0.2c-0.3,0.1-0.6,0.2-0.9,0.4c-0.2,0.2-0.4,0.4-0.5,0.6
		c-0.1,0.2-0.2,0.5-0.2,0.8c0,0.4,0.1,0.7,0.3,0.9c0.2,0.2,0.5,0.4,0.8,0.6c0.3,0.2,0.7,0.3,1.2,0.5c0.4,0.1,0.9,0.3,1.3,0.4
		c0.5,0.1,0.9,0.3,1.3,0.5c0.4,0.2,0.8,0.4,1.2,0.7c0.3,0.3,0.6,0.6,0.8,1c0.2,0.4,0.3,0.9,0.3,1.4c0,0.6-0.1,1.2-0.3,1.8
		c-0.2,0.5-0.6,1-1,1.4c-0.4,0.4-1,0.7-1.7,0.9c-0.7,0.2-1.4,0.3-2.3,0.3c-1,0-1.9-0.2-2.6-0.5c-0.8-0.3-1.5-0.7-2-1.2l0.6-0.9
		c0.1-0.1,0.2-0.2,0.3-0.3c0.1-0.1,0.2-0.1,0.4-0.1c0.2,0,0.3,0.1,0.5,0.2c0.2,0.1,0.4,0.3,0.7,0.4c0.3,0.2,0.6,0.3,1,0.4
		c0.4,0.1,0.8,0.2,1.4,0.2c0.5,0,0.9-0.1,1.3-0.2c0.4-0.1,0.7-0.3,0.9-0.5c0.2-0.2,0.4-0.5,0.5-0.7c0.1-0.3,0.2-0.6,0.2-0.9
		c0-0.4-0.1-0.7-0.3-1c-0.2-0.3-0.5-0.5-0.8-0.6c-0.3-0.2-0.7-0.3-1.2-0.5c-0.4-0.1-0.9-0.3-1.3-0.4c-0.5-0.1-0.9-0.3-1.3-0.5
		c-0.4-0.2-0.8-0.4-1.2-0.7c-0.3-0.3-0.6-0.6-0.8-1c-0.2-0.4-0.3-0.9-0.3-1.5c0-0.5,0.1-1,0.3-1.5c0.2-0.5,0.5-0.9,1-1.3
		c0.4-0.4,0.9-0.7,1.6-0.9c0.6-0.2,1.3-0.3,2.1-0.3c0.9,0,1.7,0.1,2.5,0.4c0.7,0.3,1.4,0.7,1.9,1.2L149.1,83.6z">
  </path>
  <path class="st0" d="M167.9,83.8c-0.1,0.1-0.1,0.2-0.2,0.2c-0.1,0.1-0.2,0.1-0.3,0.1s-0.3-0.1-0.5-0.2c-0.2-0.1-0.4-0.2-0.6-0.4
		c-0.2-0.1-0.6-0.3-0.9-0.4c-0.3-0.1-0.8-0.2-1.3-0.2c-0.7,0-1.3,0.1-1.8,0.4c-0.5,0.2-1,0.6-1.3,1c-0.3,0.5-0.6,1-0.8,1.7
		c-0.2,0.7-0.3,1.4-0.3,2.2c0,0.8,0.1,1.6,0.3,2.3c0.2,0.7,0.5,1.2,0.8,1.7c0.3,0.4,0.8,0.8,1.3,1c0.5,0.2,1.1,0.3,1.7,0.3
		c0.6,0,1.1-0.1,1.5-0.2c0.4-0.1,0.7-0.3,1-0.5c0.3-0.2,0.5-0.3,0.6-0.5c0.2-0.1,0.3-0.2,0.5-0.2c0.2,0,0.4,0.1,0.5,0.2l0.7,0.9
		c-0.6,0.7-1.4,1.3-2.3,1.6c-0.9,0.3-1.9,0.5-2.9,0.5c-0.9,0-1.7-0.2-2.4-0.5c-0.7-0.3-1.4-0.8-1.9-1.4c-0.6-0.6-1-1.4-1.3-2.3
		c-0.3-0.9-0.5-1.9-0.5-3c0-1,0.1-2,0.4-2.9c0.3-0.9,0.7-1.6,1.3-2.3c0.6-0.6,1.2-1.1,2.1-1.5c0.8-0.4,1.8-0.5,2.8-0.5
		c1,0,1.8,0.2,2.6,0.5c0.8,0.3,1.4,0.8,2,1.3L167.9,83.8z">
  </path>
  <path class="st0" d="M176.9,81.1c1,0,1.9,0.2,2.8,0.5c0.8,0.3,1.5,0.8,2.1,1.4c0.6,0.6,1,1.4,1.3,2.3c0.3,0.9,0.5,1.9,0.5,3
		c0,1.1-0.2,2.1-0.5,3c-0.3,0.9-0.7,1.6-1.3,2.3c-0.6,0.6-1.3,1.1-2.1,1.4c-0.8,0.3-1.7,0.5-2.8,0.5c-1,0-1.9-0.2-2.8-0.5
		c-0.8-0.3-1.5-0.8-2.1-1.4c-0.6-0.6-1-1.4-1.3-2.3c-0.3-0.9-0.5-1.9-0.5-3c0-1.1,0.2-2.1,0.5-3c0.3-0.9,0.8-1.6,1.3-2.3
		c0.6-0.6,1.3-1.1,2.1-1.4C175,81.3,175.9,81.1,176.9,81.1z M176.9,93.6c1.4,0,2.4-0.5,3.1-1.4c0.7-0.9,1-2.2,1-3.9
		c0-1.7-0.3-3-1-3.9c-0.7-0.9-1.7-1.4-3.1-1.4c-0.7,0-1.3,0.1-1.8,0.4c-0.5,0.2-0.9,0.6-1.3,1c-0.3,0.5-0.6,1-0.8,1.7
		c-0.2,0.7-0.2,1.4-0.2,2.2c0,0.8,0.1,1.6,0.2,2.2c0.2,0.7,0.4,1.2,0.8,1.7c0.3,0.4,0.8,0.8,1.3,1C175.6,93.4,176.2,93.6,176.9,93.6
		z">
  </path>
  <path class="st0" d="M186.6,95.3v-14h1.5c0.3,0,0.6,0.2,0.7,0.5l0.2,1.4c0.5-0.6,1.1-1.2,1.7-1.6c0.6-0.4,1.4-0.6,2.2-0.6
		c0.9,0,1.7,0.3,2.3,0.8c0.6,0.5,1,1.2,1.3,2.1c0.2-0.5,0.4-0.9,0.8-1.3c0.3-0.4,0.7-0.7,1.1-0.9c0.4-0.2,0.8-0.4,1.3-0.5
		c0.4-0.1,0.9-0.2,1.4-0.2c0.7,0,1.4,0.1,2,0.4c0.6,0.2,1.1,0.6,1.5,1c0.4,0.5,0.7,1,0.9,1.7c0.2,0.7,0.3,1.4,0.3,2.2v8.9H203v-8.9
		c0-1.1-0.2-1.9-0.7-2.5c-0.5-0.6-1.2-0.9-2.1-0.9c-0.4,0-0.8,0.1-1.2,0.2c-0.4,0.1-0.7,0.3-1,0.6s-0.5,0.6-0.7,1
		c-0.2,0.4-0.2,0.9-0.2,1.4v8.9h-2.5v-8.9c0-1.1-0.2-2-0.7-2.5s-1.1-0.8-2-0.8c-0.6,0-1.2,0.2-1.7,0.5c-0.5,0.3-1,0.8-1.4,1.3v10.4
		H186.6z">
  </path>
  <path class="st0" d="M209.2,100V81.3h1.5c0.3,0,0.6,0.2,0.7,0.5l0.2,1.7c0.6-0.7,1.3-1.3,2-1.7c0.8-0.4,1.7-0.7,2.7-0.7
		c0.8,0,1.5,0.2,2.2,0.5c0.7,0.3,1.2,0.8,1.7,1.4c0.5,0.6,0.8,1.3,1.1,2.2c0.2,0.9,0.4,1.9,0.4,3.1c0,1-0.1,2-0.4,2.9
		c-0.3,0.9-0.7,1.6-1.2,2.3c-0.5,0.6-1.1,1.2-1.9,1.5c-0.7,0.4-1.6,0.6-2.5,0.6c-0.9,0-1.6-0.1-2.2-0.4c-0.6-0.3-1.1-0.7-1.6-1.2
		v6.2H209.2z M215.4,83.1c-0.8,0-1.5,0.2-2.1,0.6c-0.6,0.4-1.1,0.9-1.7,1.6v6.8c0.4,0.6,0.9,1,1.5,1.3c0.5,0.2,1.1,0.4,1.8,0.4
		c1.3,0,2.3-0.5,3-1.4c0.7-0.9,1-2.3,1-4c0-0.9-0.1-1.7-0.2-2.3c-0.2-0.7-0.4-1.2-0.7-1.6c-0.3-0.4-0.7-0.7-1.1-0.9
		C216.5,83.1,216,83.1,215.4,83.1z">
  </path>
  <path class="st0" d="M234.7,95.3h-1.1c-0.2,0-0.4,0-0.6-0.1c-0.1-0.1-0.2-0.2-0.3-0.5l-0.3-1.3c-0.4,0.3-0.7,0.6-1.1,0.9
		c-0.3,0.3-0.7,0.5-1.1,0.7c-0.4,0.2-0.8,0.3-1.2,0.4c-0.4,0.1-0.9,0.1-1.4,0.1c-0.5,0-1.1-0.1-1.5-0.2c-0.5-0.2-0.9-0.4-1.2-0.7
		c-0.3-0.3-0.6-0.7-0.8-1.1c-0.2-0.5-0.3-1-0.3-1.7c0-0.6,0.2-1.1,0.5-1.6c0.3-0.5,0.8-1,1.5-1.4c0.7-0.4,1.6-0.7,2.7-1
		c1.1-0.3,2.4-0.4,4-0.4v-1.1c0-1.1-0.2-1.9-0.7-2.5c-0.5-0.6-1.1-0.8-2.1-0.8c-0.6,0-1.1,0.1-1.5,0.2c-0.4,0.1-0.8,0.3-1.1,0.5
		c-0.3,0.2-0.6,0.4-0.8,0.5c-0.2,0.1-0.4,0.2-0.6,0.2c-0.2,0-0.3,0-0.4-0.1c-0.1-0.1-0.2-0.2-0.3-0.3l-0.4-0.8
		c0.8-0.7,1.6-1.3,2.5-1.7c0.9-0.4,1.9-0.6,3-0.6c0.8,0,1.5,0.1,2.1,0.4c0.6,0.3,1.1,0.6,1.5,1.1c0.4,0.5,0.7,1,0.9,1.7
		c0.2,0.7,0.3,1.4,0.3,2.1V95.3z M228.3,93.8c0.4,0,0.8,0,1.2-0.1c0.4-0.1,0.7-0.2,1-0.4c0.3-0.2,0.6-0.4,0.9-0.6
		c0.3-0.2,0.6-0.5,0.9-0.8V89c-1.1,0-2.1,0.1-2.9,0.3c-0.8,0.1-1.4,0.3-1.9,0.6c-0.5,0.2-0.9,0.5-1.1,0.8c-0.2,0.3-0.3,0.7-0.3,1
		c0,0.4,0.1,0.7,0.2,1c0.1,0.3,0.3,0.5,0.5,0.7c0.2,0.2,0.4,0.3,0.7,0.4C227.7,93.7,228,93.8,228.3,93.8z">
  </path>
  <path class="st0" d="M238.4,95.3v-14h1.5c0.3,0,0.6,0.2,0.7,0.5l0.2,1.5c0.6-0.7,1.3-1.2,2-1.6c0.8-0.4,1.6-0.6,2.6-0.6
		c0.8,0,1.4,0.1,2,0.4c0.6,0.2,1.1,0.6,1.5,1.1c0.4,0.5,0.7,1,0.9,1.7c0.2,0.7,0.3,1.4,0.3,2.2v8.9h-2.5v-8.9c0-1.1-0.2-1.9-0.7-2.5
		c-0.5-0.6-1.2-0.9-2.2-0.9c-0.7,0-1.4,0.2-2,0.5c-0.6,0.3-1.2,0.8-1.7,1.4v10.3H238.4z">
  </path>
  <path class="st0" d="M257.4,99.4c-0.1,0.2-0.2,0.3-0.3,0.4c-0.1,0.1-0.3,0.2-0.6,0.2h-1.8l2.5-5.5l-5.8-13.1h2.1
		c0.2,0,0.4,0.1,0.5,0.2c0.1,0.1,0.2,0.2,0.3,0.3l3.7,8.8c0.1,0.2,0.2,0.4,0.2,0.6c0.1,0.2,0.1,0.4,0.2,0.6c0.1-0.2,0.1-0.4,0.2-0.6
		c0.1-0.2,0.1-0.4,0.2-0.6l3.6-8.8c0.1-0.1,0.1-0.3,0.3-0.4c0.1-0.1,0.3-0.2,0.4-0.2h2L257.4,99.4z">
  </path>
 </g>
</svg>