<svg width="157" height="35" xmlns="http://www.w3.org/2000/svg"><g fill="none" fill-rule="evenodd"><path d="M1.133 16.998c0 2.28 1.515 3.794 4.446 4.46l2.875.651c1.416.34 1.954.765 1.954 1.572 0 1.02-1.006 1.657-2.648 1.657-1.714 0-2.776-.736-2.974-2.053H.75c.213 3.002 2.79 4.984 6.896 4.984 4.079 0 6.868-1.997 6.868-5.027 0-2.322-1.246-3.526-4.375-4.234l-2.931-.637c-1.402-.326-2.082-.85-2.082-1.628 0-1.006.991-1.671 2.478-1.671 1.586 0 2.62.779 2.705 2.01h3.823c-.057-2.973-2.62-4.941-6.471-4.941-3.951 0-6.528 1.925-6.528 4.857zM16.737 28h4.135V12.41h-4.135V28zm2.068-17.29c1.232 0 2.237-.934 2.237-2.166 0-1.232-1.005-2.152-2.237-2.152-1.218 0-2.223.92-2.223 2.152 0 1.232 1.005 2.166 2.223 2.166zm11.894 4.518c-1.883 0-3.27 1.373-3.412 3.37h6.726c-.071-2.04-1.402-3.37-3.314-3.37zm3.37 8.014h3.81c-.454 3.016-3.272 5.027-7.066 5.027-4.744 0-7.647-3.044-7.647-8 0-4.956 2.917-8.128 7.49-8.128 4.49 0 7.35 3.002 7.35 7.745v1.275H27.244v.255c0 2.251 1.459 3.766 3.64 3.766 1.557 0 2.789-.736 3.185-1.94zm13.31 1.459c2.153 0 3.54-1.728 3.54-4.517 0-2.804-1.387-4.617-3.54-4.617-2.137 0-3.497 1.785-3.497 4.602 0 2.832 1.346 4.532 3.498 4.532zm-.042 9.006c-4.092 0-6.966-1.799-7.179-4.603h4.078c.27 1.034 1.572 1.686 3.2 1.686 2.096 0 3.47-1.077 3.47-2.832v-2.79h-.085c-.75 1.67-2.577 2.733-4.829 2.733-3.795 0-6.344-2.945-6.344-7.746 0-4.885 2.464-7.93 6.415-7.93 2.237 0 4.007 1.12 4.829 2.847h.07V12.41h4.079v15.236c0 3.71-3.017 6.06-7.704 6.06zm17.46-18.48c-1.883 0-3.271 1.374-3.413 3.37h6.726c-.07-2.038-1.402-3.37-3.313-3.37zm3.37 8.015h3.81c-.454 3.016-3.272 5.027-7.067 5.027-4.743 0-7.646-3.044-7.646-8 0-4.956 2.917-8.128 7.49-8.128 4.49 0 7.35 3.002 7.35 7.745v1.275H61.342v.255c0 2.251 1.458 3.766 3.639 3.766 1.558 0 2.79-.736 3.186-1.94z" fill="red"/><path d="M74.327 28h4.134v-9.374c0-1.77 1.133-3.016 2.762-3.016 1.6 0 2.563 1.005 2.563 2.676V28h3.993v-9.43c0-1.77 1.09-2.96 2.719-2.96 1.685 0 2.605 1.005 2.605 2.832V28h4.135V17.408c0-3.143-2.053-5.225-5.112-5.225-2.266 0-4.135 1.232-4.843 3.186h-.085c-.524-2.039-2.11-3.186-4.347-3.186-2.081 0-3.78 1.175-4.446 3.059h-.085V12.41h-3.993V28zm32.596-12.772c-1.883 0-3.27 1.373-3.412 3.37h6.726c-.071-2.04-1.402-3.37-3.314-3.37zm3.37 8.014h3.81c-.454 3.016-3.271 5.027-7.066 5.027-4.744 0-7.647-3.044-7.647-8 0-4.956 2.917-8.128 7.49-8.128 4.49 0 7.35 3.002 7.35 7.745v1.275h-10.762v.255c0 2.251 1.459 3.766 3.64 3.766 1.557 0 2.789-.736 3.185-1.94zm11.966 4.942c-3.88 0-6.386-3.087-6.386-8 0-4.886 2.52-7.958 6.4-7.958 2.251 0 3.993 1.118 4.772 2.846h.085V6.59h4.135V28h-4.078v-2.662h-.071c-.765 1.713-2.563 2.846-4.857 2.846zm1.373-12.617c-2.152 0-3.526 1.799-3.526 4.63 0 2.861 1.374 4.645 3.526 4.645 2.139 0 3.526-1.812 3.526-4.63 0-2.818-1.387-4.645-3.526-4.645zM134.21 28h4.135V12.41h-4.135V28zm2.067-17.29c1.232 0 2.238-.934 2.238-2.166 0-1.232-1.006-2.152-2.238-2.152-1.217 0-2.223.92-2.223 2.152 0 1.232 1.006 2.166 2.223 2.166zm10.904 14.458c1.911 0 3.44-1.19 3.44-2.889v-1.147l-3.27.227c-1.728.113-2.648.793-2.648 1.94 0 1.147.977 1.869 2.478 1.869zm-1.346 3.016c-3.002 0-5.253-1.883-5.253-4.673 0-2.832 2.167-4.432 6.146-4.673l3.894-.24v-1.034c0-1.501-1.034-2.322-2.733-2.322-1.501 0-2.55.793-2.747 1.925h-3.781c.113-2.973 2.804-5.026 6.698-5.026 4.007 0 6.627 2.053 6.627 5.168V28h-3.994v-2.407h-.085c-.85 1.628-2.775 2.591-4.772 2.591z" fill="#241F20"/></g></svg>