<svg version="1.1" id="Layer_1" xmlns:x="ns_extend;" xmlns:i="ns_ai;" xmlns:graph="ns_graphs;" xmlns="http://www.w3.org/2000/svg" xmlns:xlink="http://www.w3.org/1999/xlink" x="0px" y="0px" viewBox="0 0 399.7 54.4" style="enable-background:new 0 0 399.7 54.4;" xml:space="preserve">
 <style type="text/css">
  .st0{fill:#093451;}
 </style>
 <metadata>
  <sfw xmlns="ns_sfw;">
   <slices>
   </slices>
   <sliceSourceBounds bottomLeftOrigin="true" height="54.4" width="399.7" x="0.4" y="-227.4">
   </sliceSourceBounds>
  </sfw>
 </metadata>
 <g>
  <path class="st0" d="M57.5,54.2h38.4V44.1H69.1V31.7h22.2V21.6H69.1V10.1H96V0H57.5V54.2z M142.1,34.1L116.9,0H99.6l5.4,6.9v47.5
		h11.5V18.8l26,35.4h11.1V0h-11.6L142.1,34.1z M40,26.3c5.1-0.9,9.3-5.7,9.3-12.4C49.3,6.7,44.1,0,33.6,0H0l5.3,6.7v47.5h29.5
		c10.4,0,15.9-6.5,15.9-14.7C50.4,32.9,45.9,27.1,40,26.3z M16.8,10.2h14.5c3.9,0,6.4,2.3,6.4,5.7s-2.5,5.7-6.4,5.7H16.8V10.2z
		 M31.8,44.2h-15V31.7h15c4.4,0,6.9,2.8,6.9,6.2C38.7,41.8,36.1,44.1,31.8,44.2z M323.3,34.1h6v6.4c-3.1,2.5-7,4-11.1,4.1
		c-9.7,0-16.5-7.4-16.5-17.3s6.9-17.3,16.5-17.3c5,0,9.7,2.6,12.4,6.9l9.2-5.1C335.9,5.5,329,0,318.1,0C302.8,0,290,10.6,290,27.1
		s12.6,27.1,28.1,27.1c8.5,0.2,16.6-3.5,22.2-9.8v-20h-24.8L323.3,34.1L323.3,34.1z M271.1,34.1L245.9,0h-17.2l5.3,6.9v47.5h11.6
		V18.8l26,35.4h11V0h-11.5V34.1z M378.7,0h-22.3l5.3,6.9l-0.9,2.6l-17.3,44.8h13.1l3.4-9.2h23.3l3.4,9.2h13.1L378.7,0z M362.9,35
		l8.5-23.3l8.5,23.3H362.9z M210.3,0h11.6v54.4h-11.6V0z M201.1,9.3V0h-40.8v10.1h25.6l-25.6,34.8v9.3h41.3V44.1h-26.2L201.1,9.3z">
  </path>
 </g>
</svg>