<svg version="1.1" id="Layer_1" xmlns:x="ns_extend;" xmlns:i="ns_ai;" xmlns:graph="ns_graphs;" xmlns="http://www.w3.org/2000/svg" xmlns:xlink="http://www.w3.org/1999/xlink" x="0px" y="0px" viewBox="0 0 198.1 49.7" style="enable-background:new 0 0 198.1 49.7;" xml:space="preserve">
 <style type="text/css">
  .st0{fill:#FFFFFF;}
 </style>
 <metadata>
  <sfw xmlns="ns_sfw;">
   <slices>
   </slices>
   <sliceSourceBounds bottomLeftOrigin="true" height="49.7" width="198.1" x="101.2" y="-225">
   </sliceSourceBounds>
  </sfw>
 </metadata>
 <path class="st0" d="M112.3,16.2c0-5.8,0.1-11.2,0.4-16.2L97.4,2.9v1.4l1.5,0.2c1.1,0.1,1.8,0.5,2.2,1.1c0.4,0.7,0.7,1.7,0.9,3.2
	c0.2,2.9,0.4,9.5,0.3,19.9c0,10.3-0.1,16.8-0.3,19.3c5.5,1.2,9.8,1.7,13,1.7c6,0,10.7-1.7,14.1-5.2c3.4-3.4,5.2-8.2,5.2-14.1
	c0-4.7-1.3-8.6-3.9-11.7c-2.6-3.1-5.9-4.6-9.8-4.6C118,14.1,115.3,14.8,112.3,16.2z M112.6,47c-0.2-3.2-0.4-12.8-0.4-28.5
	c0.9-0.3,2.1-0.5,3.6-0.5c2.4,0,4.3,1.2,5.7,3.7c1.4,2.5,2.1,5.5,2.1,9.3c0,4.7-0.8,8.5-2.4,11.7c-1.6,3.1-3.6,4.7-6.1,4.7
	C114.3,47.2,113.5,47.1,112.6,47z M40,1H0v2l2.1,0.2C3.7,3.5,4.8,4.1,5.5,5c0.7,1,1.1,2.6,1.2,4.8c0.8,10.8,0.8,20.9,0,30.2
	c-0.2,2.2-0.6,3.8-1.2,4.8c-0.7,1-1.8,1.6-3.4,1.8L0,46.9v2h25.8v-2l-2.7-0.2c-1.6-0.2-2.7-0.9-3.4-1.8c-0.7-1-1.1-2.6-1.2-4.8
	c-0.3-4-0.5-8.6-0.5-13.7l5.4,0.1c2.9,0.1,4.9,2.3,5.9,6.7h2V16.9h-2c-1,4.3-2.9,6.5-5.9,6.6L18,23.6c0-9,0.2-15.4,0.5-19.3h7.9
	c5.6,0,9.4,3.6,11.6,10.8l2.4-0.7L40,1z M35.3,31.8c0,5.2,1.5,9.5,4.4,12.9c2.9,3.4,7.2,5,12.6,5s9.8-1.7,13-5.2
	c3.2-3.4,4.7-7.7,4.7-12.9s-1.5-9.5-4.4-12.9s-7.2-5-12.6-5s-9.8,1.7-13,5.2C36.8,22.3,35.3,26.6,35.3,31.8z M57.6,20.4
	c1.2,2.9,1.7,6.7,1.7,11.3c0,10.6-2.2,15.8-6.5,15.8c-2.2,0-3.9-1.5-5.1-4.5c-1.2-3-1.7-6.8-1.7-11.3C46,21.2,48.2,16,52.5,16
	C54.7,15.9,56.4,17.4,57.6,20.4z M142.1,44.7c3.3,3.3,7.5,5,12.5,5c3.1,0,5.8-0.6,8.2-1.9c2.4-1.2,4.3-2.7,5.6-4.5l-1-1.2
	c-2.2,1.7-4.7,2.5-7.6,2.5c-4,0-7.1-1.3-9.2-4c-2.2-2.7-3.2-6.1-3-10.5H169c0-4.8-1.2-8.7-3.7-11.8c-2.5-3-6-4.5-10.5-4.5
	c-5.6,0-9.9,1.8-13,5.3s-4.6,7.8-4.6,12.9C137.2,37.2,138.8,41.4,142.1,44.7L142.1,44.7z M149.5,19.6c1.1-2.4,2.5-3.6,4.4-3.6
	c3,0,4.5,3.8,4.5,11.5l-10.6,0.2C147.9,24.7,148.4,22,149.5,19.6L149.5,19.6z M195.9,15.6c-2.7-1.2-6.1-1.9-10.2-1.9
	c-4.2,0-7.5,1.1-10,3.2s-3.8,4.7-3.8,7.8c0,2.7,0.8,4.8,2.3,6.3s3.9,2.8,7,3.9c2.8,1,4.8,2,5.8,2.9c1,1,1.6,2.1,1.6,3.6
	c0,1.4-0.5,2.7-1.6,3.7c-1,1.1-2.4,1.6-4.2,1.6c-4.4,0-7.7-3.2-10-9.6l-1.7,0.5l0.4,10c3.6,1.4,7.6,2.1,12,2.1c4.6,0,8.1-1,10.7-3.1
	c2.6-2,3.9-4.9,3.9-8.5c0-2.4-0.6-4.4-1.9-5.9c-1.3-1.5-3.4-2.8-6.4-4c-3.3-1.2-5.6-2.3-6.8-3.3s-1.8-2.2-1.8-3.7s0.4-2.7,1.3-3.7
	s2-1.4,3.4-1.4c4,0,6.9,2.9,8.7,8.6l1.7-0.5L195.9,15.6z M99.7,14.7c-1.4-0.7-2.9-1-4.6-1s-3.4,0.7-5.3,2.1s-3.3,3.3-4.4,5.9l0.1-8
	l-15.2,3v1.4l1.5,0.1c1.9,0.2,3,1.7,3.2,4.4c0.6,6.2,0.6,12.8,0,19.8c-0.2,2.7-1.3,4.1-3.2,4.4L70.3,47v1.9h21.2V47l-2.7-0.2
	c-1.9-0.2-3-1.7-3.2-4.4c-0.6-5.8-0.7-12-0.2-18.4c0.6-1,1.9-1.6,3.9-1.8c2-0.2,4.3,0.4,6.7,1.8C96,24,99.7,14.7,99.7,14.7z">
 </path>
</svg>